<svg xmlns="http://www.w3.org/2000/svg" width="192" height="192"><path d="M84.193 9.01C49.112 13.913 20.239 39.706 10.88 74.5c-3.053 11.351-3.053 31.649 0 43 6.838 25.422 23.256 45.588 46.384 56.973 13.909 6.847 22.501 8.799 38.736 8.799 16.235 0 24.827-1.952 38.736-8.799 23.128-11.385 39.546-31.551 46.384-56.973 1.701-6.324 2.152-10.828 2.152-21.5s-.451-15.176-2.152-21.5c-8.436-31.363-32.725-55.598-63.645-63.507-8.873-2.269-24.554-3.203-33.282-1.983m-3.841 71.031c-4.132 1.264-9.081 7-9.926 11.501-2.151 11.467 4.35 20.843 14.452 20.843 2.932 0 5.933-.687 7.504-1.716 2.261-1.481 2.618-1.507 2.618-.192 0 .856.875 1.523 2 1.523 1.778 0 2-.667 2-6 0-4.667.333-6 1.5-6 .833 0 1.5-.889 1.5-2 0-1.754-.667-2-5.418-2-2.98 0-6.13-.273-7-.607-1.193-.458-1.582.034-1.582 2 0 2.114.473 2.607 2.5 2.607 3.124 0 3.38 2.894.487 5.512-3.214 2.908-7.833 2.344-11.143-1.361-2.382-2.666-2.844-4.061-2.844-8.59 0-4.381.5-6.001 2.631-8.534 2.346-2.789 3.128-3.094 7.25-2.826l4.619.299v4c0 3.744.185 4 2.891 4 5.742 0 6.034-6.619.473-10.758-3.058-2.277-9.981-3.088-14.512-1.701m49.148-.308c-3.221.806-7.414 4.2-9.015 7.296-2.341 4.528-1.938 14.01.765 17.981 3.607 5.3 7.128 7.375 12.516 7.375 5.78 0 10.428-2.511 12.56-6.786 1.372-2.75 1.553-2.846 1.61-.849.214 7.526 16.89 10.848 23.536 4.688 1.866-1.729 2.528-3.357 2.528-6.216 0-5.132-2.739-7.612-11.567-10.474-6.121-1.985-6.97-2.565-7.245-4.953-.268-2.325.154-2.827 3-3.564 5.381-1.394 7.324-.574 7.317 3.089-.004 2.851.328 3.212 3.211 3.491 2.777.268 3.308-.06 3.897-2.405.86-3.428-.355-5.428-4.688-7.711-6.757-3.562-17.149-.572-19.335 5.564-2.013 5.649 2.463 10.36 12.115 12.752 9.86 2.443 9.369 8.989-.674 8.989-4.766 0-4.824-.039-4.678-3.112.171-3.61-2.112-5.627-4.967-4.388-2.184.947-2.173.947-5.136.048-1.583-.481-2.25-.27-2.25.71 0 2.627-4.463 5.742-8.226 5.742-6.651 0-11.04-8.041-8.683-15.908 1.562-5.216 3.92-7.292 8.282-7.292 5.014 0 5.905.846 3.984 3.778-1.507 2.299-1.495 2.612.166 4.448 3.419 3.777 7.477 1.85 7.477-3.552 0-6.421-8.27-10.802-16.5-8.741M17 82c0 1.467.667 2 2.5 2H22v24h-2.5c-1.833 0-2.5.533-2.5 2 0 1.914.667 2 15.5 2s15.5-.086 15.5-2c0-1.333-.667-2-2-2-1.865 0-1.998-.656-1.969-9.75l.031-9.75 2.219 3.608c1.221 1.984 4.244 7.265 6.719 11.734 4.382 7.913 4.598 8.126 8.25 8.142L65 112V98c0-13.333.095-14 2-14 1.333 0 2-.667 2-2 0-1.822-.667-2-7.5-2s-7.5.178-7.5 2c0 1.467.667 2 2.5 2 2.486 0 2.5.052 2.5 9.223 0 10.566.51 10.82-7.955-3.973L45.751 80H31.376C17.667 80 17 80.093 17 82m85 0c0 1.333.667 2 2 2 1.889 0 2 .667 2 12s-.111 12-2 12c-1.333 0-2 .667-2 2 0 1.833.667 2 8 2s8-.167 8-2c0-1.467-.667-2-2.5-2H113V84h2.5c1.833 0 2.5-.533 2.5-2 0-1.833-.667-2-8-2s-8 .167-8 2M29 96v12h9V84h-9v12" fill="undefined" fill-rule="evenodd"/></svg>